<svg xmlns="http://www.w3.org/2000/svg" version="1.1" xmlns:xlink="http://www.w3.org/1999/xlink" xmlns:svgjs="http://svgjs.dev/svgjs" width="2000" height="434" viewBox="0 0 2000 434"><g transform="matrix(1,0,0,1,-1.2121212121213603,0.39176151672373294)"><svg viewBox="0 0 396 86" data-background-color="#ffffff" preserveAspectRatio="xMidYMid meet" height="434" width="2000" xmlns="http://www.w3.org/2000/svg" xmlns:xlink="http://www.w3.org/1999/xlink"><g id="tight-bounds" transform="matrix(1,0,0,1,0.24000000000003752,-0.07763016230009612)"><svg viewBox="0 0 395.5199999999999 86.15526032460018" height="86.15526032460018" width="395.5199999999999"><g><svg viewBox="0 0 686.3830934412183 149.5133345920119" height="86.15526032460018" width="395.5199999999999"><g><rect width="7.446230971681534" height="122.71747983789157" x="263.92411123476836" y="13.397927377060157" fill="#f8f2f2" opacity="1" stroke-width="0" stroke="transparent" fill-opacity="1" class="rect-r$-0" data-fill-palette-color="primary" rx="1%" id="r$-0" data-palette-color="#f8f2f2"></rect></g><g transform="matrix(1,0,0,1,290.8630934412183,13.703194739840974)"><svg viewBox="0 0 395.5199999999999 122.10694511232994" height="122.10694511232994" width="395.5199999999999"><g id="textblocktransform"><svg viewBox="0 0 395.5199999999999 122.10694511232994" height="122.10694511232994" width="395.5199999999999" id="textblock"><g><svg viewBox="0 0 395.5199999999999 82.56981325830839" height="82.56981325830839" width="395.5199999999999"><g transform="matrix(1,0,0,1,0,0)"><svg width="395.5199999999999" viewBox="1.6 -37.13404255319149 183.24 37.88959766427949" height="82.56981325830839" data-palette-color="#f8f2f2"><g class="wordmark-text-0" data-fill-palette-color="primary" id="text-0"><path d="M31.85 0.45L31.85 0.45Q28.9-0.75 26.8-1.85L26.8-1.85Q25.35-1.15 24-0.7L24-0.7Q20.25 0.4 17.45 0.08 14.65-0.25 11.25-1.85L11.25-1.85Q8-3.5 5.75-6.08 3.5-8.65 2.55-11.63 1.6-14.6 1.6-17.88 1.6-21.15 2.58-24.15 3.55-27.15 5.45-29.85 7.35-32.55 9.95-34.45L9.95-34.45Q10.65-34.95 11.68-35.45 12.7-35.95 13.7-36.33 14.7-36.7 14.75-36.75L14.75-36.75Q16.75-37.7 18.4-36.3L18.4-36.3 18.95-36.4Q21.15-36.7 22.35-36.65L22.35-36.65Q24.45-36.6 26.23-35.75 28-34.9 29.95-33.1L29.95-33.1Q33.1-30.2 34.77-25.75 36.45-21.3 36.2-16.45 35.95-11.6 33.75-7.9L33.75-7.9Q33.35-7.25 32.8-6.6L32.8-6.6 34.55-5.85Q35.8-5.3 36.38-4 36.95-2.7 36.38-1.4 35.8-0.1 34.5 0.48 33.2 1.05 31.85 0.45L31.85 0.45ZM19.6-6.75L18.4-7.8Q17.35-8.7 17.25-10.15L17.25-10.15Q17.15-11.5 18.1-12.6 19.05-13.7 20.45-13.8 21.85-13.9 22.95-12.9L22.95-12.9Q24.9-11.25 26.6-10.05L26.6-10.05Q27.45-10.8 27.85-11.45L27.85-11.45Q29.95-14.95 29.15-20.1 28.35-25.25 25.3-28L25.3-28Q23.4-29.75 22.15-29.8L22.15-29.8Q21.5-29.8 19.9-29.6L19.9-29.6Q17.35-29.25 15.85-29.1L15.85-29.1Q15.25-29.1 14.65-29.25L14.65-29.25Q14.3-29.05 13.95-28.85L13.95-28.85Q11.8-27.3 10.4-25.05L10.4-25.05Q9-22.7 8.65-20.28 8.3-17.85 8.75-15.48 9.2-13.1 10.65-11.15L10.65-11.15Q12.1-9.15 14.3-8.05L14.3-8.05Q17.45-6.55 19.6-6.75L19.6-6.75ZM59.5 0.5L59.5 0.5Q56.65-0.6 56.65-3.15L56.65-3.15Q53.8 0.85 48.55 0L48.55 0Q46.35-0.6 44.72-1.8 43.1-3 42.2-4.65 41.3-6.3 40.85-7.93 40.4-9.55 40.25-11.4L40.25-11.4Q40.1-12.4 40.25-14.7 40.4-17 40.5-18.1 40.6-19.2 40.85-21.13 41.1-23.05 41.15-23.5L41.15-23.5Q41.35-24.9 42.42-25.75 43.5-26.6 44.87-26.43 46.25-26.25 47.1-25.18 47.95-24.1 47.8-22.7L47.8-22.7 47.45-20.1Q47.2-18.25 47.1-17.32 47-16.4 46.87-14.53 46.75-12.65 46.9-11.85L46.9-11.85Q47.1-9.4 47.87-8.13 48.65-6.85 50.3-6.45L50.3-6.45Q51.4-6.15 52.75-6.63 54.1-7.1 55.45-9.25L55.45-9.25Q55.75-9.55 56.05-9.75L56.05-9.75Q56.1-17.1 56-22.9L56-22.9Q56-24.4 57-25.43 58-26.45 59.47-26.48 60.95-26.5 61.97-25.5 63-24.5 63.05-23L63.05-23Q63.15-15.6 63.05-2.95L63.05-2.95Q63.05-1.55 62-0.5L62-0.5Q60.95 0.5 59.5 0.5L59.5 0.5ZM68.35-3.4L68.35-3.4Q68.2-14 68.5-23.25L68.5-23.25Q68.55-24.7 69.62-25.68 70.7-26.65 72.15-26.6 73.6-26.55 74.57-25.48 75.55-24.4 75.5-22.95L75.5-22.95Q75.2-13.6 75.35-3.5L75.35-3.5Q75.35-2.05 74.35-1.03 73.35 0 71.9 0.03 70.45 0.05 69.42-0.95 68.4-1.95 68.35-3.4L68.35-3.4ZM74.3-35.15L74.3-35.15Q75.35-34.15 75.35-32.63 75.35-31.1 74.3-30.05 73.25-29 71.75-29 70.25-29 69.2-30.05 68.15-31.1 68.15-32.63 68.15-34.15 69.2-35.2 70.25-36.25 71.75-36.25 73.25-36.25 74.3-35.15L74.3-35.15ZM89.34 0L89.34 0Q88.09 0 87.29-0.05L87.29-0.05 82.59-0.1Q81.24-0.1 80.44-0.7L80.44-0.7Q79.79-1.2 79.42-1.93 79.04-2.65 79.04-3.45L79.04-3.45Q79.04-4 79.29-4.58 79.54-5.15 80.24-6.15L80.24-6.15Q80.94-7.1 84.54-11.3L84.54-11.3Q86.04-13 87.74-14.98 89.44-16.95 91.34-19.25L91.34-19.25Q90.04-19.2 88.64-19.25 87.24-19.3 85.79-19.35L85.79-19.35Q83.49-19.45 82.39-19.45L82.39-19.45Q80.79-19.5 79.84-20.45 78.89-21.4 78.89-22.75L78.89-22.75Q78.89-24.05 79.69-25.05 80.49-26.05 81.99-26.05L81.99-26.05Q88.54-26.05 97.29-25.8L97.29-25.8Q98.74-25.75 99.72-24.75 100.69-23.75 100.69-22.45L100.69-22.45Q100.69-21.5 100.14-20.5 99.59-19.5 98.44-18.1L98.44-18.1 92.59-11Q90.74-8.75 88.69-6.6L88.69-6.6Q93.44-6.6 98.39-6.85L98.39-6.85Q99.99-6.95 100.94-5.95 101.89-4.95 101.89-3.55L101.89-3.55Q101.89-2.25 101.09-1.3 100.29-0.35 98.79-0.25L98.79-0.25Q93.89 0 89.34 0L89.34 0ZM114.54 0.05L114.54 0.05Q113.24 0.25 112.24-0.55 111.24-1.35 110.99-2.65L110.99-2.65Q109.89-7.2 107.44-16.55L107.44-16.55Q105.24-25.25 103.59-31.8L103.59-31.8Q103.29-33.2 104.09-34.4 104.89-35.6 106.29-35.9 107.69-36.2 108.89-35.4 110.09-34.6 110.39-33.2L110.39-33.2Q111.89-26.6 115.24-13.05L115.24-13.05Q118.94-23.15 122.84-33.7L122.84-33.7Q123.24-34.7 124.14-35.27 125.04-35.85 126.09-35.85L126.09-35.85Q127.29-35.85 128.29-35.13 129.29-34.4 130.19-30.3L130.19-30.3 133.74-20.25 135.94-12.7Q136.34-13.95 138.17-21.65 139.99-29.35 141.39-33.55L141.39-33.55Q141.79-34.9 143.07-35.6 144.34-36.3 145.72-35.9 147.09-35.5 147.79-34.23 148.49-32.95 148.09-31.55L148.09-31.55Q146.69-27.4 145.24-21.6 143.79-15.8 143.34-14.25L143.34-14.25 141.39-8.3 139.74-2.65Q139.44-1.6 138.67-0.9 137.89-0.2 136.84-0.1L136.84-0.1Q135.54 0.25 134.42-0.35 133.29-0.95 132.74-2.3L132.74-2.3Q130.29-9.25 127.99-16.55L127.99-16.55Q126.74-20.45 125.69-22.95L125.69-22.95 118.14-2.2Q117.69-1.05 116.72-0.43 115.74 0.2 114.54 0.05L114.54 0.05ZM151.29-3.4L151.29-3.4Q151.14-14 151.44-23.25L151.44-23.25Q151.49-24.7 152.56-25.68 153.64-26.65 155.09-26.6 156.54-26.55 157.51-25.48 158.49-24.4 158.44-22.95L158.44-22.95Q158.14-13.6 158.29-3.5L158.29-3.5Q158.29-2.05 157.29-1.03 156.29 0 154.84 0.03 153.39 0.05 152.36-0.95 151.34-1.95 151.29-3.4L151.29-3.4ZM157.24-35.15L157.24-35.15Q158.29-34.15 158.29-32.63 158.29-31.1 157.24-30.05 156.19-29 154.69-29 153.19-29 152.14-30.05 151.09-31.1 151.09-32.63 151.09-34.15 152.14-35.2 153.19-36.25 154.69-36.25 156.19-36.25 157.24-35.15L157.24-35.15ZM172.29 0L172.29 0Q171.04 0 170.24-0.05L170.24-0.05 165.54-0.1Q164.19-0.1 163.39-0.7L163.39-0.7Q162.74-1.2 162.36-1.93 161.99-2.65 161.99-3.45L161.99-3.45Q161.99-4 162.24-4.58 162.49-5.15 163.19-6.15L163.19-6.15Q163.89-7.1 167.49-11.3L167.49-11.3Q168.99-13 170.69-14.98 172.39-16.95 174.29-19.25L174.29-19.25Q172.99-19.2 171.59-19.25 170.19-19.3 168.74-19.35L168.74-19.35Q166.44-19.45 165.34-19.45L165.34-19.45Q163.74-19.5 162.79-20.45 161.84-21.4 161.84-22.75L161.84-22.75Q161.84-24.05 162.64-25.05 163.44-26.05 164.94-26.05L164.94-26.05Q171.49-26.05 180.24-25.8L180.24-25.8Q181.69-25.75 182.66-24.75 183.64-23.75 183.64-22.45L183.64-22.45Q183.64-21.5 183.09-20.5 182.54-19.5 181.39-18.1L181.39-18.1 175.54-11Q173.69-8.75 171.64-6.6L171.64-6.6Q176.39-6.6 181.34-6.85L181.34-6.85Q182.94-6.95 183.89-5.95 184.84-4.95 184.84-3.55L184.84-3.55Q184.84-2.25 184.04-1.3 183.24-0.35 181.74-0.25L181.74-0.25Q176.84 0 172.29 0L172.29 0Z" fill="#f8f2f2" data-fill-palette-color="primary"></path></g></svg></g></svg></g><g transform="matrix(1,0,0,1,0,102.06256449307679)"><svg viewBox="0 0 232.20979199999994 20.044380619253136" height="20.044380619253136" width="232.20979199999994"><g transform="matrix(1,0,0,1,0,0)"><svg width="232.20979199999994" viewBox="2.93 -33.45 525.1800000000001 44.92" height="20.044380619253136" data-palette-color="#f7eded"><g class="slogan-text-1" data-fill-palette-color="secondary" id="text-1"><path d="M19.97-30.52L19.97-30.52Q14.7-30.52 11.04-25.07 7.37-19.63 7.37-13.04L7.37-13.04Q7.37-8.06 9.55-4.83 11.72-1.61 15.72-1.61L15.72-1.61Q20.8-1.61 24.51-7.15 28.22-12.7 28.22-19.29L28.22-19.29Q28.22-24.17 26.07-27.34 23.93-30.52 19.97-30.52ZM21.09-32.57L21.09-32.57Q26.03-32.57 29.37-28.88 32.71-25.2 32.71-19.97L32.71-19.97Q32.71-14.89 30.3-10.25 27.88-5.62 23.93-2.73L23.93-2.73Q19.38 0.59 13.48 1.71L13.48 1.71Q14.94 1.9 20.31 4.2 25.68 6.49 28.96 6.49L28.96 6.49Q30.76 6.49 32.89 5.44 35.01 4.39 36.08 3.47L36.08 3.47Q37.21 4 37.21 4.64L37.21 4.64Q36.33 5.81 33.33 7.45 30.32 9.08 27.15 9.08 23.97 9.08 21.02 8.08 18.07 7.08 14.01 5.32 9.96 3.56 6.01 2.54L6.01 2.54Q6.01 2.34 6.32 1.88 6.64 1.42 6.88 1.32L6.88 1.32Q7.62 1.27 12.06 0.24L12.06 0.24Q7.86-0.59 5.4-4.15 2.93-7.71 2.93-12.65L2.93-12.65Q2.93-17.72 5.62-22.39 8.3-27.05 12.5-29.81 16.7-32.57 21.09-32.57ZM39.74-21.24L39.74-21.24Q40.52-21.24 40.96-20.53 41.4-19.82 41.4-18.7L41.4-18.7Q41.4-17.38 41.11-16.11L41.11-16.11 39.4-8.06Q39.06-6.64 39.06-5.42L39.06-5.42Q39.06-3.32 39.99-3.32L39.99-3.32Q40.67-3.32 41.94-4.47 43.21-5.62 44.6-7.45 45.99-9.28 47.24-11.91 48.48-14.55 48.97-17.14L48.97-17.14 49.8-20.95Q50.44-21.14 51.32-21.14L51.32-21.14Q52.19-21.14 52.98-20.95L52.98-20.95 49.95-5.18Q49.8-4.59 49.8-3.96L49.8-3.96Q49.8-2.73 50.29-2.73L50.29-2.73Q50.58-2.73 51-3 51.41-3.27 51.83-3.66 52.24-4.05 52.59-4.42 52.93-4.79 53.22-5.08L53.22-5.08 53.51-5.42Q53.61-5.42 53.88-4.96 54.15-4.49 54.15-4.3L54.15-4.3Q53.51-3.22 51.51-1.46 49.51 0.29 48 0.29L48 0.29Q47.21 0.29 46.77-0.42 46.34-1.12 46.34-2.25L46.34-2.25Q46.34-3.03 46.68-4.83L46.68-4.83 47.56-9.33Q47.07-8.4 45.55-6.3 44.04-4.2 41.75-1.95 39.45 0.29 37.99 0.29L37.99 0.29Q35.54 0.29 35.54-2.93L35.54-2.93Q35.54-5.18 36.23-8.25L36.23-8.25 37.69-15.04Q37.94-16.8 37.94-16.99L37.94-16.99Q37.94-18.21 37.45-18.21L37.45-18.21Q37.25-18.21 36.91-17.99 36.57-17.77 36.2-17.43 35.84-17.09 35.54-16.8 35.25-16.5 35.01-16.21 34.76-15.92 34.76-15.92L34.76-15.92Q34.67-15.92 34.4-16.38 34.13-16.85 34.13-17.04L34.13-17.04Q34.71-18.02 36.59-19.63 38.47-21.24 39.74-21.24ZM63.67-21.24L63.67-21.24Q64.45-21.24 64.89-20.53 65.33-19.82 65.33-18.7L65.33-18.7Q65.33-17.68 65.03-16.11L65.03-16.11 62.89-5.18Q62.74-4.59 62.74-3.96L62.74-3.96Q62.74-2.73 63.23-2.73L63.23-2.73Q63.52-2.73 63.94-3 64.35-3.27 64.77-3.66 65.18-4.05 65.52-4.42 65.86-4.79 66.16-5.08L66.16-5.08 66.45-5.42Q66.55-5.42 66.82-4.96 67.08-4.49 67.08-4.3L67.08-4.3Q66.45-3.22 64.45-1.46 62.45 0.29 60.93 0.29L60.93 0.29Q60.15 0.29 59.71-0.42 59.27-1.12 59.27-2.25L59.27-2.25Q59.27-3.03 59.61-4.83L59.61-4.83 61.62-15.04Q61.86-16.55 61.86-16.99L61.86-16.99Q61.86-18.21 61.37-18.21L61.37-18.21Q61.18-18.21 60.83-17.99 60.49-17.77 60.13-17.43 59.76-17.09 59.47-16.8 59.17-16.5 58.93-16.21L58.93-16.21 58.69-15.92Q58.59-15.92 58.32-16.38 58.05-16.85 58.05-17.04L58.05-17.04Q58.64-18.02 60.52-19.63 62.4-21.24 63.67-21.24ZM65.08-31.54L65.08-31.54Q65.82-31.54 66.33-30.96 66.84-30.37 66.84-29.59L66.84-29.59Q66.84-28.42 66.08-27.54 65.33-26.66 64.2-26.66L64.2-26.66Q63.42-26.66 62.98-27.27 62.54-27.88 62.54-28.76L62.54-28.76Q62.54-29.88 63.28-30.71 64.01-31.54 65.08-31.54ZM76.9-21.24L76.9-21.24Q77.39-21.24 80.02-20.63 82.66-20.02 84.27-20.02L84.27-20.02Q84.95-20.02 85.88-20.63 86.81-21.24 87.49-21.24L87.49-21.24Q88.08-21.24 88.08-20.02L88.08-20.02Q88.08-19.73 84.42-15.7 80.75-11.67 77.14-7.76L77.14-7.76 73.48-3.86Q73.48-3.81 73.82-4.03 74.16-4.25 74.65-4.49 75.14-4.74 75.48-4.74L75.48-4.74Q76.85-4.74 78.9-3.86 80.95-2.98 81.63-2.98L81.63-2.98Q82.02-2.98 82.44-3.27 82.85-3.56 83.22-4.03 83.59-4.49 83.88-4.91 84.17-5.32 84.42-5.79 84.66-6.25 84.71-6.3L84.71-6.3Q84.9-6.54 85.12-6.15 85.34-5.76 85.39-5.37L85.39-5.37Q85-4.1 83.49-2.05 81.97 0 80.51 0L80.51 0Q80.02 0 77.39-0.63 74.75-1.27 73.14-1.27L73.14-1.27Q72.45-1.27 71.53-0.63 70.6 0 69.91 0L69.91 0Q69.33 0 69.33-1.27L69.33-1.27Q69.33-1.61 72.97-5.62 76.6-9.62 80.27-13.53L80.27-13.53 83.88-17.43 83.59-17.19Q83.24-16.99 82.76-16.75 82.27-16.5 81.93-16.5L81.93-16.5Q80.56-16.5 78.51-17.38 76.46-18.26 75.77-18.26L75.77-18.26Q75.38-18.26 74.97-17.97 74.55-17.68 74.19-17.21 73.82-16.75 73.55-16.31 73.28-15.87 73.04-15.43 72.8-14.99 72.75-14.94L72.75-14.94Q72.5-14.7 72.31-15.09 72.11-15.48 72.06-15.92L72.06-15.92Q72.45-17.19 73.94-19.21 75.43-21.24 76.9-21.24ZM96.62-21.24L96.62-21.24Q97.11-21.24 99.75-20.63 102.38-20.02 103.99-20.02L103.99-20.02Q104.68-20.02 105.61-20.63 106.53-21.24 107.22-21.24L107.22-21.24Q107.8-21.24 107.8-20.02L107.8-20.02Q107.8-19.73 104.14-15.7 100.48-11.67 96.87-7.76L96.87-7.76 93.2-3.86Q93.2-3.81 93.54-4.03 93.89-4.25 94.37-4.49 94.86-4.74 95.2-4.74L95.2-4.74Q96.57-4.74 98.62-3.86 100.67-2.98 101.36-2.98L101.36-2.98Q101.75-2.98 102.16-3.27 102.58-3.56 102.94-4.03 103.31-4.49 103.6-4.91 103.9-5.32 104.14-5.79 104.38-6.25 104.43-6.3L104.43-6.3Q104.63-6.54 104.85-6.15 105.07-5.76 105.12-5.37L105.12-5.37Q104.73-4.1 103.21-2.05 101.7 0 100.23 0L100.23 0Q99.75 0 97.11-0.63 94.47-1.27 92.86-1.27L92.86-1.27Q92.18-1.27 91.25-0.63 90.32 0 89.64 0L89.64 0Q89.05 0 89.05-1.27L89.05-1.27Q89.05-1.61 92.69-5.62 96.33-9.62 99.99-13.53L99.99-13.53 103.6-17.43 103.31-17.19Q102.97-16.99 102.48-16.75 101.99-16.5 101.65-16.5L101.65-16.5Q100.28-16.5 98.23-17.38 96.18-18.26 95.5-18.26L95.5-18.26Q95.11-18.26 94.69-17.97 94.28-17.68 93.91-17.21 93.54-16.75 93.28-16.31 93.01-15.87 92.76-15.43 92.52-14.99 92.47-14.94L92.47-14.94Q92.23-14.7 92.03-15.09 91.84-15.48 91.79-15.92L91.79-15.92Q92.18-17.19 93.67-19.21 95.16-21.24 96.62-21.24ZM120.59-21.24L120.59-21.24Q122.84-21.24 123.84-20.09 124.84-18.95 124.84-17.58L124.84-17.58Q124.84-15.43 122.64-13.33 120.45-11.23 117.83-10.08 115.22-8.94 113.61-8.94L113.61-8.94Q113.42-8.94 113.42-7.23L113.42-7.23Q113.42-5.03 114.27-3.88 115.12-2.73 116.59-2.73L116.59-2.73Q116.98-2.73 117.35-2.83 117.71-2.93 118.05-3.08 118.4-3.22 118.74-3.39 119.08-3.56 119.37-3.81 119.67-4.05 119.93-4.25 120.2-4.44 120.42-4.66 120.64-4.88 120.76-5.03 120.89-5.18 120.98-5.27L120.98-5.27 121.13-5.42Q121.23-5.42 121.5-4.96 121.76-4.49 121.76-4.3L121.76-4.3Q121.08-3.13 119.03-1.42 116.98 0.29 114.98 0.29L114.98 0.29Q112.44 0.29 111.1-1.68 109.75-3.66 109.75-7.13L109.75-7.13Q109.75-11.82 113.32-16.53 116.88-21.24 120.59-21.24ZM120.1-19.24L120.1-19.24Q117.81-19.24 115.78-15.94 113.76-12.65 113.76-10.84L113.76-10.84Q113.76-10.64 113.95-10.64L113.95-10.64Q115.71-10.64 118.52-12.99 121.33-15.33 121.33-17.77L121.33-17.77Q121.33-19.24 120.1-19.24ZM136.61-21.39L136.61-21.39Q139.39-21.39 141-19.53L141-19.53Q141.24-18.95 141.24-18.51L141.24-18.51Q141.24-17.63 140.78-16.99 140.32-16.36 139.58-16.36L139.58-16.36Q138.9-16.36 138.36-17.07 137.83-17.77 137.02-18.51 136.22-19.24 134.9-19.24L134.9-19.24Q133.87-19.24 133.29-18.55 132.7-17.87 132.7-16.99L132.7-16.99Q132.7-15.72 133.65-14.28 134.6-12.84 135.73-11.72 136.85-10.6 137.8-8.98 138.75-7.37 138.75-5.71L138.75-5.71Q138.75-3.03 136.8-1.37 134.85 0.29 131.77 0.29L131.77 0.29Q128.99 0.29 127.38-1.56L127.38-1.56Q127.13-1.95 127.13-2.49L127.13-2.49Q127.13-3.37 127.6-4.05 128.06-4.74 128.79-4.74L128.79-4.74Q129.48-4.74 130.01-4.03 130.55-3.32 131.36-2.59 132.16-1.86 133.48-1.86L133.48-1.86Q134.56-1.86 135.21-2.56 135.87-3.27 135.87-4.1L135.87-4.1Q135.87-5.37 134.92-6.81 133.97-8.25 132.85-9.38 131.72-10.5 130.77-12.11 129.82-13.72 129.82-15.38L129.82-15.38Q129.82-17.43 131.77-19.41 133.73-21.39 136.61-21.39Z" fill="#f8f2f2" data-fill-palette-color="primary"></path><path d="M160.82-20.51L161.99-26.46Q162.14-26.95 164.38-26.95L164.38-26.95Q164.97-26.95 165.26-26.9L165.26-26.9 164.04-20.51 168.48-20.51Q168.73-20.51 168.73-19.87L168.73-19.87Q168.73-19.29 168.29-18.46L168.29-18.46 163.65-18.46 161.06-5.18Q160.92-4.59 160.92-3.96L160.92-3.96Q160.92-2.73 161.4-2.73L161.4-2.73Q161.7-2.73 162.11-3 162.53-3.27 162.94-3.66 163.36-4.05 163.7-4.42 164.04-4.79 164.33-5.08L164.33-5.08 164.63-5.42Q164.72-5.42 164.99-4.96 165.26-4.49 165.26-4.3L165.26-4.3Q164.63-3.22 162.62-1.46 160.62 0.29 159.11 0.29L159.11 0.29Q158.33 0.29 157.89-0.42 157.45-1.12 157.45-2.25L157.45-2.25Q157.45-3.03 157.79-4.83L157.79-4.83 160.43-18.46 156.96-18.46Q156.81-18.46 156.81-18.99L156.81-18.99Q156.81-19.63 157.4-20.51L157.4-20.51 160.82-20.51ZM183.76-21.24L183.76-21.24Q186.21-21.24 186.21-18.02L186.21-18.02Q186.21-15.82 185.52-12.7L185.52-12.7 183.91-5.18Q183.76-4.59 183.76-3.96L183.76-3.96Q183.76-2.73 184.25-2.73L184.25-2.73Q184.55-2.73 184.96-3 185.38-3.27 185.79-3.66 186.21-4.05 186.55-4.42 186.89-4.79 187.18-5.08L187.18-5.08 187.48-5.42Q187.57-5.42 187.84-4.96 188.11-4.49 188.11-4.3L188.11-4.3Q187.48-3.22 185.47-1.46 183.47 0.29 181.96 0.29L181.96 0.29Q181.18 0.29 180.74-0.42 180.3-1.12 180.3-2.25L180.3-2.25Q180.3-3.03 180.64-4.83L180.64-4.83 182.35-12.89Q182.69-14.5 182.69-15.53L182.69-15.53Q182.69-17.63 181.76-17.63L181.76-17.63Q180.15-17.63 176.76-13.21 173.36-8.79 172.39-3.81L172.39-3.81 171.56 0Q170.92 0.2 170.04 0.2 169.16 0.2 168.38 0L168.38 0 173.66-27.29Q174.1-29.44 174.1-29.88L174.1-29.88Q174.1-30.81 171.12-30.81L171.12-30.81Q170.97-30.81 170.97-31.1L170.97-31.1Q170.97-31.69 171.36-32.08L171.36-32.08Q174.58-32.37 177.51-33.45L177.51-33.45Q177.81-33.3 177.81-32.52L177.81-32.52Q177.81-32.13 177.17-28.86L177.17-28.86 174.68-16.11 173.8-11.62Q174.29-12.5 175.93-14.65 177.56-16.8 179.93-19.02 182.3-21.24 183.76-21.24ZM204.86-21.24L204.86-21.24Q206.71-21.24 208.42-20.61L208.42-20.61 205.44-5.18Q205.3-4.59 205.3-3.96L205.3-3.96Q205.3-2.73 205.78-2.73L205.78-2.73Q206.08-2.73 206.49-3 206.91-3.27 207.32-3.66 207.74-4.05 208.08-4.42 208.42-4.79 208.71-5.08L208.71-5.08 209.01-5.42Q209.1-5.42 209.37-4.96 209.64-4.49 209.64-4.3L209.64-4.3Q209.01-3.22 207-1.46 205 0.29 203.49 0.29L203.49 0.29Q202.71 0.29 202.27-0.42 201.83-1.12 201.83-2.25L201.83-2.25Q201.83-3.08 202.17-4.83L202.17-4.83Q202.27-5.37 202.34-5.69 202.41-6.01 202.41-6.1L202.41-6.1Q201.93-5.22 201.29-4.32 200.66-3.42 199.68-2.29 198.7-1.17 197.6-0.46 196.51 0.24 195.53 0.24L195.53 0.24Q193.38 0.24 192.14-1.68 190.89-3.61 190.89-6.35L190.89-6.35Q190.89-9.81 192.97-13.31 195.04-16.8 198.31-19.02 201.58-21.24 204.86-21.24ZM202.8-18.99L202.8-18.99Q199.92-18.99 197.21-15.26 194.5-11.52 194.5-7.37L194.5-7.37Q194.5-2.59 196.99-2.59L196.99-2.59Q198.75-2.59 200.92-6.15 203.1-9.72 203.83-13.38L203.83-13.38 204.81-18.36Q204.22-18.99 202.8-18.99ZM217.6-20.51L218.77-26.46Q218.92-26.95 221.16-26.95L221.16-26.95Q221.75-26.95 222.04-26.9L222.04-26.9 220.82-20.51 225.26-20.51Q225.51-20.51 225.51-19.87L225.51-19.87Q225.51-19.29 225.07-18.46L225.07-18.46 220.43-18.46 217.84-5.18Q217.69-4.59 217.69-3.96L217.69-3.96Q217.69-2.73 218.18-2.73L218.18-2.73Q218.48-2.73 218.89-3 219.31-3.27 219.72-3.66 220.14-4.05 220.48-4.42 220.82-4.79 221.11-5.08L221.11-5.08 221.41-5.42Q221.5-5.42 221.77-4.96 222.04-4.49 222.04-4.3L222.04-4.3Q221.41-3.22 219.4-1.46 217.4 0.29 215.89 0.29L215.89 0.29Q215.11 0.29 214.67-0.42 214.23-1.12 214.23-2.25L214.23-2.25Q214.23-3.03 214.57-4.83L214.57-4.83 217.21-18.46 213.74-18.46Q213.59-18.46 213.59-18.99L213.59-18.99Q213.59-19.63 214.18-20.51L214.18-20.51 217.6-20.51Z" fill="#f7eded" data-fill-palette-color="secondary"></path><path d="M253.97-8.4L253.97-8.4Q253.97-9.86 252.8-11.25 251.63-12.65 249.97-13.79 248.31-14.94 246.63-16.14 244.94-17.33 243.77-18.95 242.6-20.56 242.6-22.36L242.6-22.36Q242.6-26.76 245.8-29.64 248.99-32.52 253.53-32.52L253.53-32.52Q254.8-32.52 256.81-31.98 258.81-31.45 259.83-31.35L259.83-31.35Q259.49-28.66 259.2-25.93L259.2-25.93Q259.05-24.51 258.98-24.27 258.91-24.02 258.76-24.02L258.76-24.02Q258.03-24.02 257.64-24.32L257.64-24.32Q257.54-24.37 257.54-24.9L257.54-24.9Q257.54-27.2 256.05-28.81 254.56-30.42 252.61-30.42L252.61-30.42Q249.82-30.42 248.11-28.74 246.41-27.05 246.41-24.51L246.41-24.51Q246.41-21.92 248.8-20.02L248.8-20.02Q249.73-19.29 251.97-17.72 254.22-16.16 255.22-15.33 256.22-14.5 257.2-12.96 258.17-11.43 258.17-9.72L258.17-9.72Q258.17-8.2 257.44-6.49 256.71-4.79 255.34-3.25 253.97-1.71 251.73-0.71 249.48 0.29 246.8 0.29L246.8 0.29Q244.16 0.29 239.03-0.88L239.03-0.88Q239.23-4 239.23-4.83 239.23-5.66 239.18-7.08 239.13-8.5 239.13-8.59L239.13-8.59Q239.13-8.94 240.06-8.94L240.06-8.94Q240.5-8.94 240.99-8.54L240.99-8.54Q240.99-7.52 241.21-6.49 241.43-5.47 242.04-4.3 242.65-3.13 243.99-2.42 245.33-1.71 247.24-1.71L247.24-1.71Q249.82-1.71 251.9-3.49 253.97-5.27 253.97-8.4ZM273.16-18.41L273.16-18.41Q270.28-18.41 268.47-15.82L268.47-15.82 266.37-5.03Q266.18-3.91 266.57-2.98 266.96-2.05 268.28-2.05L268.28-2.05Q271.11-2.05 273.65-5.76 276.19-9.47 276.19-13.67L276.19-13.67Q276.19-18.41 273.16-18.41ZM275.11-21.24L275.11-21.24Q277.36-21.24 278.58-19.31 279.8-17.38 279.8-14.65L279.8-14.65Q279.8-11.28 277.65-7.74 275.51-4.2 272.58-2 269.65 0.2 267.35 0.2L267.35 0.2Q266.13 0.2 265.4-0.2L265.4-0.2 264.03 7.08Q263.88 7.71 263.88 8.45L263.88 8.45Q263.88 9.38 264.57 9.57L264.57 9.57Q265.2 9.72 266.86 9.72L266.86 9.72Q266.96 9.72 266.96 10.01L266.96 10.01Q266.96 10.74 266.72 11.08L266.72 11.08Q266.37 11.08 265.81 11.06 265.25 11.04 265.01 11.04L265.01 11.04Q261.69 11.04 258.02 11.47L258.02 11.47Q257.88 11.43 257.88 11.08L257.88 11.08Q257.88 10.35 258.07 10.06L258.07 10.06Q259.39 10.06 260.03 9.28L260.03 9.28Q260.56 8.59 260.81 7.18L260.81 7.18 264.67-12.74 262.32-10.4Q262.03-10.74 262.03-11.38L262.03-11.38Q262.03-11.57 262.17-11.72L262.17-11.72 265.06-14.79 266.33-21.14Q267.06-21.34 267.94-21.34 268.82-21.34 269.5-21L269.5-21Q269.06-18.95 268.96-18.26L268.96-18.26Q269.94-19.14 270.55-19.63 271.16-20.12 272.45-20.68 273.75-21.24 275.11-21.24ZM296.55-21.24L296.55-21.24Q298.4-21.24 300.11-20.61L300.11-20.61 297.13-5.18Q296.99-4.59 296.99-3.96L296.99-3.96Q296.99-2.73 297.48-2.73L297.48-2.73Q297.77-2.73 298.18-3 298.6-3.27 299.01-3.66 299.43-4.05 299.77-4.42 300.11-4.79 300.4-5.08L300.4-5.08 300.7-5.42Q300.8-5.42 301.06-4.96 301.33-4.49 301.33-4.3L301.33-4.3Q300.7-3.22 298.7-1.46 296.69 0.29 295.18 0.29L295.18 0.29Q294.4 0.29 293.96-0.42 293.52-1.12 293.52-2.25L293.52-2.25Q293.52-3.08 293.86-4.83L293.86-4.83Q293.96-5.37 294.03-5.69 294.11-6.01 294.11-6.1L294.11-6.1Q293.62-5.22 292.98-4.32 292.35-3.42 291.37-2.29 290.4-1.17 289.3-0.46 288.2 0.24 287.22 0.24L287.22 0.24Q285.07 0.24 283.83-1.68 282.58-3.61 282.58-6.35L282.58-6.35Q282.58-9.81 284.66-13.31 286.73-16.8 290-19.02 293.28-21.24 296.55-21.24ZM294.5-18.99L294.5-18.99Q291.62-18.99 288.91-15.26 286.2-11.52 286.2-7.37L286.2-7.37Q286.2-2.59 288.69-2.59L288.69-2.59Q290.44-2.59 292.62-6.15 294.79-9.72 295.52-13.38L295.52-13.38 296.5-18.36Q295.91-18.99 294.5-18.99ZM310.95-21.24L310.95-21.24Q311.73-21.24 312.17-20.53 312.61-19.82 312.61-18.7L312.61-18.7Q312.61-17.63 312.32-16.11L312.32-16.11 311.54-12.01Q312.76-14.89 315.17-18.07 317.59-21.24 319.25-21.24 320.91-21.24 321.94-19.68L321.94-19.68Q321.94-16.41 320.13-16.41L320.13-16.41Q319.74-16.41 319.2-17.02 318.66-17.63 318.08-17.63L318.08-17.63Q316.66-17.63 313.85-13.38 311.05-9.13 310.31-5.13L310.31-5.13 309.39 0Q308.56 0.15 307.78 0.15L307.78 0.15Q306.85 0.15 305.97 0L305.97 0 308.9-15.04Q309.14-16.8 309.14-16.99L309.14-16.99Q309.14-18.21 308.65-18.21L308.65-18.21Q308.46-18.21 308.12-17.99 307.78-17.77 307.41-17.43 307.04-17.09 306.75-16.8 306.46-16.5 306.21-16.21 305.97-15.92 305.97-15.92L305.97-15.92Q305.87-15.92 305.6-16.38 305.33-16.85 305.33-17.04L305.33-17.04Q305.92-18.02 307.8-19.63 309.68-21.24 310.95-21.24ZM337.75-21.24L337.75-21.24Q339.22-21.24 340.32-20.29 341.42-19.34 341.42-17.92L341.42-17.92Q341.42-14.75 338.61-12.7 335.8-10.64 331.41-9.91L331.41-9.91Q334.34-5.52 335.87-4.1 337.41-2.69 338.49-2.69L338.49-2.69Q339.36-2.69 340.17-3.42 340.98-4.15 341.37-4.83L341.37-4.83Q341.51-4.83 341.83-4.44 342.15-4.05 342.15-3.86L342.15-3.86Q341.9-3.03 340.34-1.42 338.78 0.2 337.36 0.2L337.36 0.2Q336.73 0.2 336.12 0 335.51-0.2 334.9-0.63 334.29-1.07 333.77-1.46 333.26-1.86 332.65-2.64 332.04-3.42 331.65-3.88 331.26-4.35 330.65-5.32 330.04-6.3 329.79-6.69 329.55-7.08 328.96-8.11 328.38-9.13 328.23-9.33L328.23-9.33 326.43 0Q325.55 0.24 324.81 0.24L324.81 0.24Q324.18 0.24 323.2 0L323.2 0 328.52-27.29Q328.96-29.3 328.96-29.88L328.96-29.88Q328.96-30.81 325.99-30.81L325.99-30.81Q325.84-30.81 325.84-31.1L325.84-31.1Q325.84-31.69 326.23-32.08L326.23-32.08Q329.4-32.37 332.38-33.45L332.38-33.45Q332.68-33.3 332.68-32.52L332.68-32.52Q332.68-31.93 332.04-28.86L332.04-28.86 329.5-15.72 330.04-16.36Q330.58-16.99 331.33-17.75 332.09-18.51 333.09-19.34 334.09-20.17 335.34-20.7 336.58-21.24 337.75-21.24ZM336-18.95L336-18.95Q334.43-18.95 331.72-15.67 329.01-12.4 329.01-11.33L329.01-11.33Q329.01-11.23 329.11-11.23L329.11-11.23Q329.31-11.23 329.62-11.28 329.94-11.33 330.84-11.5 331.75-11.67 332.6-11.91 333.46-12.16 334.46-12.62 335.46-13.09 336.19-13.65 336.92-14.21 337.44-15.04 337.95-15.87 337.95-16.85L337.95-16.85Q337.95-18.95 336-18.95Z" fill="#39cccc" data-fill-palette-color="accent"></path><path d="M375.16-10.3L375.16-10.3Q375.16-12.89 373.54-14.53 371.93-16.16 368.37-16.16L368.37-16.16Q364.9-16.16 364.75-15.43L364.75-15.43 362.9-5.66Q362.66-4.2 362.66-3.32 362.66-2.44 363.34-2.22 364.02-2 365.59-2L365.59-2Q369-2 370.32-2.64L370.32-2.64Q372.32-3.56 373.74-5.62 375.16-7.67 375.16-10.3ZM379.55-10.5L379.55-10.5Q379.55-6.49 375.91-3.25 372.27 0 366.07 0L366.07 0 359.87 0 354.5 0.15Q354.45 0.1 354.45-0.29L354.45-0.29Q354.45-1.27 354.79-1.27L354.79-1.27Q355.38-1.27 356.58-1.61 357.77-1.95 357.97-2.39L357.97-2.39Q358.65-3.81 359.24-6.93L359.24-6.93 362.75-25.1Q363.29-27.88 363.29-29.64L363.29-29.64Q363.29-29.98 362.19-30.4 361.09-30.81 360.56-30.81L360.56-30.81Q360.46-30.81 360.46-31.01L360.46-31.01Q360.46-31.79 360.8-32.13L360.8-32.13Q363.05-32.03 366.02-32.03L366.02-32.03Q368.32-32.03 369.78-32.06 371.25-32.08 372.42-32.08L372.42-32.08Q373.79-32.08 375.13-31.76 376.47-31.45 377.72-30.76 378.96-30.08 379.75-28.78 380.53-27.49 380.53-25.78L380.53-25.78Q380.53-24.61 380.18-23.51 379.84-22.41 379.31-21.63 378.77-20.85 378.09-20.17 377.4-19.48 376.77-19.02 376.13-18.55 375.57-18.24 375.01-17.92 374.67-17.77L374.67-17.77 374.37-17.63Q375.84-17.38 377.69-15.33 379.55-13.28 379.55-10.5ZM376.38-25.2L376.38-25.2Q376.38-30.08 371.35-30.08L371.35-30.08Q367.78-30.08 367.68-29.44L367.68-29.44 365.49-18.85Q365.44-18.65 365.66-18.53 365.88-18.41 366.32-18.33 366.76-18.26 367.25-18.24 367.73-18.21 368.37-18.21L368.37-18.21Q369.93-18.21 371.05-18.41 372.18-18.6 373.54-19.24 374.91-19.87 375.64-21.39 376.38-22.9 376.38-25.2ZM389.17-21.24L389.17-21.24Q389.95-21.24 390.39-20.53 390.83-19.82 390.83-18.7L390.83-18.7Q390.83-17.63 390.53-16.11L390.53-16.11 389.75-12.01Q390.97-14.89 393.39-18.07 395.81-21.24 397.47-21.24 399.13-21.24 400.15-19.68L400.15-19.68Q400.15-16.41 398.35-16.41L398.35-16.41Q397.96-16.41 397.42-17.02 396.88-17.63 396.3-17.63L396.3-17.63Q394.88-17.63 392.07-13.38 389.26-9.13 388.53-5.13L388.53-5.13 387.6 0Q386.77 0.15 385.99 0.15L385.99 0.15Q385.06 0.15 384.19 0L384.19 0 387.12-15.04Q387.36-16.8 387.36-16.99L387.36-16.99Q387.36-18.21 386.87-18.21L386.87-18.21Q386.68-18.21 386.33-17.99 385.99-17.77 385.63-17.43 385.26-17.09 384.97-16.8 384.67-16.5 384.43-16.21 384.19-15.92 384.19-15.92L384.19-15.92Q384.09-15.92 383.82-16.38 383.55-16.85 383.55-17.04L383.55-17.04Q384.14-18.02 386.02-19.63 387.9-21.24 389.17-21.24ZM407.38-21.24L407.38-21.24Q408.16-21.24 408.6-20.53 409.04-19.82 409.04-18.7L409.04-18.7Q409.04-17.68 408.74-16.11L408.74-16.11 406.6-5.18Q406.45-4.59 406.45-3.96L406.45-3.96Q406.45-2.73 406.94-2.73L406.94-2.73Q407.23-2.73 407.65-3 408.06-3.27 408.48-3.66 408.89-4.05 409.23-4.42 409.57-4.79 409.87-5.08L409.87-5.08 410.16-5.42Q410.26-5.42 410.53-4.96 410.79-4.49 410.79-4.3L410.79-4.3Q410.16-3.22 408.16-1.46 406.16 0.29 404.64 0.29L404.64 0.29Q403.86 0.29 403.42-0.42 402.98-1.12 402.98-2.25L402.98-2.25Q402.98-3.03 403.32-4.83L403.32-4.83 405.33-15.04Q405.57-16.55 405.57-16.99L405.57-16.99Q405.57-18.21 405.08-18.21L405.08-18.21Q404.89-18.21 404.54-17.99 404.2-17.77 403.84-17.43 403.47-17.09 403.18-16.8 402.88-16.5 402.64-16.21L402.64-16.21 402.4-15.92Q402.3-15.92 402.03-16.38 401.76-16.85 401.76-17.04L401.76-17.04Q402.35-18.02 404.23-19.63 406.11-21.24 407.38-21.24ZM408.79-31.54L408.79-31.54Q409.53-31.54 410.04-30.96 410.55-30.37 410.55-29.59L410.55-29.59Q410.55-28.42 409.79-27.54 409.04-26.66 407.91-26.66L407.91-26.66Q407.13-26.66 406.69-27.27 406.25-27.88 406.25-28.76L406.25-28.76Q406.25-29.88 406.99-30.71 407.72-31.54 408.79-31.54ZM415.14-4.83L415.14-4.83 419.73-28.52Q419.87-29.25 419.87-29.88L419.87-29.88Q419.87-30.81 416.9-30.81L416.9-30.81Q416.75-30.81 416.75-31.1L416.75-31.1Q416.75-31.69 417.14-32.08L417.14-32.08Q420.46-32.37 423.39-33.45L423.39-33.45Q423.68-33.3 423.68-32.52L423.68-32.52Q423.68-31.93 423.05-28.86L423.05-28.86 418.41-5.18Q418.26-4.59 418.26-3.96L418.26-3.96Q418.26-2.73 418.75-2.73L418.75-2.73Q419.04-2.73 419.46-3 419.87-3.27 420.31-3.66 420.75-4.05 421.1-4.42 421.44-4.79 421.71-5.1 421.97-5.42 421.97-5.42L421.97-5.42Q422.12-5.42 422.36-4.96 422.61-4.49 422.61-4.3L422.61-4.3Q421.97-3.22 419.97-1.46 417.97 0.29 416.46 0.29L416.46 0.29Q415.72 0.29 415.26-0.42 414.8-1.12 414.8-2.25L414.8-2.25Q414.8-3.08 415.14-4.83ZM427.24-4.83L427.24-4.83 431.83-28.52Q431.98-29.25 431.98-29.88L431.98-29.88Q431.98-30.81 429-30.81L429-30.81Q428.86-30.81 428.86-31.1L428.86-31.1Q428.86-31.69 429.25-32.08L429.25-32.08Q432.57-32.37 435.5-33.45L435.5-33.45Q435.79-33.3 435.79-32.52L435.79-32.52Q435.79-31.93 435.16-28.86L435.16-28.86 430.52-5.18Q430.37-4.59 430.37-3.96L430.37-3.96Q430.37-2.73 430.86-2.73L430.86-2.73Q431.15-2.73 431.57-3 431.98-3.27 432.42-3.66 432.86-4.05 433.2-4.42 433.54-4.79 433.81-5.1 434.08-5.42 434.08-5.42L434.08-5.42Q434.23-5.42 434.47-4.96 434.72-4.49 434.72-4.3L434.72-4.3Q434.08-3.22 432.08-1.46 430.08 0.29 428.56 0.29L428.56 0.29Q427.83 0.29 427.37-0.42 426.9-1.12 426.9-2.25L426.9-2.25Q426.9-3.08 427.24-4.83ZM444.97-21.24L444.97-21.24Q445.75-21.24 446.19-20.53 446.63-19.82 446.63-18.7L446.63-18.7Q446.63-17.68 446.33-16.11L446.33-16.11 444.19-5.18Q444.04-4.59 444.04-3.96L444.04-3.96Q444.04-2.73 444.53-2.73L444.53-2.73Q444.82-2.73 445.24-3 445.65-3.27 446.07-3.66 446.48-4.05 446.82-4.42 447.16-4.79 447.46-5.08L447.46-5.08 447.75-5.42Q447.85-5.42 448.12-4.96 448.39-4.49 448.39-4.3L448.39-4.3Q447.75-3.22 445.75-1.46 443.75 0.29 442.23 0.29L442.23 0.29Q441.45 0.29 441.01-0.42 440.57-1.12 440.57-2.25L440.57-2.25Q440.57-3.03 440.91-4.83L440.91-4.83 442.92-15.04Q443.16-16.55 443.16-16.99L443.16-16.99Q443.16-18.21 442.67-18.21L442.67-18.21Q442.48-18.21 442.14-17.99 441.79-17.77 441.43-17.43 441.06-17.09 440.77-16.8 440.47-16.5 440.23-16.21L440.23-16.21 439.99-15.92Q439.89-15.92 439.62-16.38 439.35-16.85 439.35-17.04L439.35-17.04Q439.94-18.02 441.82-19.63 443.7-21.24 444.97-21.24ZM446.38-31.54L446.38-31.54Q447.12-31.54 447.63-30.96 448.14-30.37 448.14-29.59L448.14-29.59Q448.14-28.42 447.38-27.54 446.63-26.66 445.5-26.66L445.5-26.66Q444.72-26.66 444.28-27.27 443.84-27.88 443.84-28.76L443.84-28.76Q443.84-29.88 444.58-30.71 445.31-31.54 446.38-31.54ZM465.37-21.24L465.37-21.24Q467.23-21.24 468.94-20.61L468.94-20.61 465.96-5.18Q465.81-4.59 465.81-3.96L465.81-3.96Q465.81-2.73 466.3-2.73L466.3-2.73Q466.6-2.73 467.01-3 467.43-3.27 467.84-3.66 468.26-4.05 468.6-4.42 468.94-4.79 469.23-5.08L469.23-5.08 469.53-5.42Q469.62-5.42 469.89-4.96 470.16-4.49 470.16-4.3L470.16-4.3Q469.53-3.22 467.52-1.46 465.52 0.29 464.01 0.29L464.01 0.29Q463.23 0.29 462.79-0.42 462.35-1.12 462.35-2.25L462.35-2.25Q462.35-3.08 462.69-4.83L462.69-4.83Q462.79-5.37 462.86-5.69 462.93-6.01 462.93-6.1L462.93-6.1Q462.45-5.22 461.81-4.32 461.18-3.42 460.2-2.29 459.22-1.17 458.12-0.46 457.03 0.24 456.05 0.24L456.05 0.24Q453.9 0.24 452.65-1.68 451.41-3.61 451.41-6.35L451.41-6.35Q451.41-9.81 453.49-13.31 455.56-16.8 458.83-19.02 462.1-21.24 465.37-21.24ZM463.32-18.99L463.32-18.99Q460.44-18.99 457.73-15.26 455.02-11.52 455.02-7.37L455.02-7.37Q455.02-2.59 457.51-2.59L457.51-2.59Q459.27-2.59 461.44-6.15 463.62-9.72 464.35-13.38L464.35-13.38 465.33-18.36Q464.74-18.99 463.32-18.99ZM479.43-21.24L479.43-21.24Q480.22-21.24 480.66-20.53 481.09-19.82 481.09-18.7L481.09-18.7Q481.09-17.63 480.8-16.11L480.8-16.11 479.92-11.62Q480.41-12.5 482.05-14.65 483.68-16.8 486.05-19.02 488.42-21.24 489.88-21.24L489.88-21.24Q492.33-21.24 492.33-18.02L492.33-18.02Q492.33-15.82 491.64-12.7L491.64-12.7 490.03-5.18Q489.88-4.59 489.88-3.96L489.88-3.96Q489.88-2.73 490.37-2.73L490.37-2.73Q490.67-2.73 491.08-3 491.5-3.27 491.91-3.66 492.33-4.05 492.67-4.42 493.01-4.79 493.3-5.08L493.3-5.08 493.59-5.42Q493.69-5.42 493.96-4.96 494.23-4.49 494.23-4.3L494.23-4.3Q493.59-3.22 491.59-1.46 489.59 0.29 488.08 0.29L488.08 0.29Q487.3 0.29 486.86-0.42 486.42-1.12 486.42-2.25L486.42-2.25Q486.42-3.03 486.76-4.83L486.76-4.83 488.47-12.89Q488.81-14.5 488.81-15.53L488.81-15.53Q488.81-17.63 487.88-17.63L487.88-17.63Q486.27-17.63 482.88-13.21 479.48-8.79 478.51-3.81L478.51-3.81 477.68 0Q477.04 0.2 476.16 0.2 475.28 0.2 474.5 0L474.5 0 477.38-15.04Q477.63-16.8 477.63-16.99L477.63-16.99Q477.63-18.21 477.14-18.21L477.14-18.21Q476.94-18.21 476.6-17.99 476.26-17.77 475.89-17.43 475.53-17.09 475.24-16.8 474.94-16.5 474.7-16.21 474.45-15.92 474.45-15.92L474.45-15.92Q474.36-15.92 474.09-16.38 473.82-16.85 473.82-17.04L473.82-17.04Q474.41-18.02 476.29-19.63 478.17-21.24 479.43-21.24ZM507.85-21.24L507.85-21.24Q510.15-21.24 512.1-19.58L512.1-19.58Q512.24-18.99 512.24-18.6L512.24-18.6Q512.24-17.68 511.78-17.09 511.32-16.5 510.54-16.5 509.75-16.5 508.92-17.87 508.09-19.24 507.26-19.24L507.26-19.24Q505.16-19.24 502.89-15.84 500.62-12.45 500.62-7.91L500.62-7.91Q500.62-2.73 503.85-2.73L503.85-2.73Q504.24-2.73 504.6-2.83 504.97-2.93 505.31-3.08 505.65-3.22 505.99-3.39 506.34-3.56 506.63-3.81 506.92-4.05 507.19-4.25 507.46-4.44 507.68-4.66 507.9-4.88 508.02-5.03 508.14-5.18 508.24-5.27L508.24-5.27 508.39-5.42Q508.48-5.42 508.75-4.96 509.02-4.49 509.02-4.3L509.02-4.3Q508.34-3.13 506.29-1.42 504.24 0.29 502.23 0.29L502.23 0.29Q499.7 0.29 498.35-1.68 497.01-3.66 497.01-7.13L497.01-7.13Q497.01-11.82 500.57-16.53 504.14-21.24 507.85-21.24ZM523.86-21.24L523.86-21.24Q526.11-21.24 527.11-20.09 528.11-18.95 528.11-17.58L528.11-17.58Q528.11-15.43 525.91-13.33 523.72-11.23 521.1-10.08 518.49-8.94 516.88-8.94L516.88-8.94Q516.69-8.94 516.69-7.23L516.69-7.23Q516.69-5.03 517.54-3.88 518.39-2.73 519.86-2.73L519.86-2.73Q520.25-2.73 520.62-2.83 520.98-2.93 521.32-3.08 521.67-3.22 522.01-3.39 522.35-3.56 522.64-3.81 522.94-4.05 523.2-4.25 523.47-4.44 523.69-4.66 523.91-4.88 524.03-5.03 524.16-5.18 524.25-5.27L524.25-5.27 524.4-5.42Q524.5-5.42 524.77-4.96 525.04-4.49 525.04-4.3L525.04-4.3Q524.35-3.13 522.3-1.42 520.25 0.29 518.25 0.29L518.25 0.29Q515.71 0.29 514.37-1.68 513.02-3.66 513.02-7.13L513.02-7.13Q513.02-11.82 516.59-16.53 520.15-21.24 523.86-21.24ZM523.38-19.24L523.38-19.24Q521.08-19.24 519.05-15.94 517.03-12.65 517.03-10.84L517.03-10.84Q517.03-10.64 517.22-10.64L517.22-10.64Q518.98-10.64 521.79-12.99 524.6-15.33 524.6-17.77L524.6-17.77Q524.6-19.24 523.38-19.24Z" fill="#f8f2f2" data-fill-palette-color="primary"></path></g></svg></g></svg></g></svg></g></svg></g><g><svg viewBox="0 0 244.43135999999996 149.5133345920119" height="149.5133345920119" width="244.43135999999996"><g><svg xmlns="http://www.w3.org/2000/svg" xmlns:xlink="http://www.w3.org/1999/xlink" version="1.1" x="0" y="0" viewBox="4.280035867850395 20 91.71979628105136 56.10300000000001" enable-background="new 0 0 100 100" xml:space="preserve" height="149.5133345920119" width="244.43135999999996" class="icon-icon-0" data-fill-palette-color="accent" id="icon-0"><g fill="#39cccc" data-fill-palette-color="accent"><path d="M68.633 55.761c-0.157 0-0.317 0.01-0.474 0.032-1.972 0.264-3.362 2.081-3.1 4.053 0.238 1.785 1.777 3.131 3.579 3.131 0.158 0 0.317-0.01 0.475-0.031 1.971-0.264 3.361-2.081 3.1-4.054C71.974 57.107 70.435 55.761 68.633 55.761z" fill="#39cccc" data-fill-palette-color="accent"></path><path d="M73.58 34.083c-1.609-1.063-3.733-1.625-6.146-1.625-0.709 0-1.438 0.049-2.166 0.146-2.408 0.321-4.744 1.487-6.41 3.197-1.689 1.736-2.51 3.855-2.248 5.813 0.192 1.445 1.28 2.379 2.771 2.379 0.16 0 0.323-0.012 0.486-0.033 1.992-0.266 2.422-1.638 2.836-2.964 0.473-1.512 0.919-2.939 3.493-3.283 0.264-0.035 0.521-0.053 0.765-0.053 1.853 0 3.003 0.978 3.24 2.754 0.232 1.738-1.142 3.124-2.597 4.591-1.633 1.647-3.484 3.513-3.131 6.16 0.091 0.682 0.392 1.318 0.846 1.791 0.521 0.543 1.203 0.83 1.972 0.83 0.141 0 0.287-0.009 0.432-0.029 2.084-0.278 2.368-1.487 2.642-2.658 0.104-0.442 0.212-0.9 0.42-1.312 0.289-0.576 1.012-1.252 1.851-2.034 2.002-1.871 4.743-4.433 4.236-8.228C76.555 37.148 75.446 35.317 73.58 34.083z" fill="#39cccc" data-fill-palette-color="accent"></path><path d="M95.961 65.606l-5.583-41.84C90.091 21.62 88.243 20 86.078 20c-0.191 0-0.386 0.013-0.577 0.039l-41.839 5.583c-2.372 0.317-4.044 2.504-3.728 4.877l0.319 2.394-27.441-3.965c-0.16-0.023-0.323-0.035-0.484-0.035-1.661 0-3.092 1.241-3.331 2.886L4.315 64.188c-0.128 0.891 0.098 1.777 0.636 2.498 0.539 0.72 1.325 1.188 2.216 1.316l32.408 4.682c0.161 0.022 0.324 0.033 0.484 0.033 1.661 0 3.092-1.239 3.33-2.885l0.932-6.453 1.195 8.957c0.287 2.148 2.135 3.767 4.299 3.767 0.192 0 0.387-0.012 0.578-0.037l41.84-5.585c1.147-0.152 2.169-0.744 2.873-1.665C95.812 67.896 96.114 66.755 95.961 65.606zM40.623 69.434c-0.044 0.307-0.334 0.529-0.647 0.483L7.567 65.235c-0.205-0.029-0.323-0.152-0.376-0.223-0.053-0.071-0.137-0.221-0.108-0.425l4.682-32.409c0.041-0.279 0.283-0.49 0.563-0.49 0.028 0 0.057 0.002 0.084 0.006l28.226 4.077 2.328 17.444L40.623 69.434zM92.244 66.627c-0.069 0.091-0.225 0.248-0.488 0.283l-41.839 5.584c-0.405 0.056-0.774-0.235-0.828-0.633l-5.583-41.839c-0.054-0.403 0.23-0.774 0.633-0.828l41.838-5.584c0.035-0.004 0.067-0.006 0.102-0.006 0.366 0 0.68 0.275 0.728 0.64l5.585 41.84C92.425 66.347 92.312 66.537 92.244 66.627z" fill="#39cccc" data-fill-palette-color="accent"></path><path d="M33.159 41.087c-1.284-1.176-3.186-1.997-5.354-2.31-0.396-0.058-0.803-0.087-1.208-0.087-1.703 0-3.377 0.5-4.717 1.408-1.377 0.934-2.246 2.203-2.443 3.572-0.094 0.651 0.061 1.231 0.45 1.679 0.35 0.402 0.877 0.673 1.485 0.761 0.153 0.022 0.3 0.034 0.44 0.034 1.227 0 1.775-0.837 2.305-1.646 0.591-0.906 1.151-1.762 2.64-1.762 0.206 0 0.429 0.017 0.66 0.05 1.764 0.254 2.645 1.298 2.418 2.864-0.193 1.345-1.513 2.09-2.908 2.877-1.567 0.884-3.344 1.886-3.64 3.937-0.083 0.572 0.033 1.168 0.32 1.633 0.235 0.382 0.695 0.863 1.557 0.988 0.18 0.025 0.351 0.039 0.509 0.039h0.001c1.212 0 1.625-0.745 2.023-1.465 0.171-0.309 0.347-0.628 0.59-0.891 0.337-0.369 1.021-0.721 1.812-1.128 1.89-0.972 4.479-2.306 4.903-5.244C35.303 44.305 34.667 42.469 33.159 41.087z" fill="#39cccc" data-fill-palette-color="accent"></path><path d="M25.057 56.696c-0.132-0.019-0.265-0.03-0.397-0.03-1.383 0-2.576 1.033-2.774 2.4-0.219 1.527 0.844 2.949 2.371 3.17 0.132 0.02 0.266 0.028 0.397 0.028 1.384 0 2.577-1.031 2.774-2.398C27.647 58.339 26.584 56.918 25.057 56.696z" fill="#39cccc" data-fill-palette-color="accent"></path></g></svg></g></svg></g></svg></g><defs></defs></svg><rect width="395.5199999999999" height="86.15526032460018" fill="none" stroke="none" visibility="hidden"></rect></g></svg></g></svg>